<svg style="position: absolute; width: 0; height: 0; overflow: hidden;" aria-hidden="true" version="1.1" xmlns="http://www.w3.org/2000/svg" xmlns:xlink="http://www.w3.org/1999/xlink">
    <style>
        .default-palette, .palette0 {color: currentColor;
            --color0: #2e2f42;
            --color1: #4d5ae5;
        }
    </style>
    <defs>
        <symbol id="technologies" viewBox="0 0 64 64" fill="var(--color0, #2e2f42)">
            <path fill="var(--color1, #4d5ae5)" d="M63.948 9.048a1.07 1.07 0 0 0-0.86-0.725l-3.822-0.556-1.71-3.462c-0.358-0.73-1.553-0.73-1.912 0l-1.71 3.462-3.82 0.556a1.066 1.066 0 0 0-0.592 1.819l2.765 2.695-0.653 3.806c-0.068 0.4 0.096 0.804 0.424 1.043 0.332 0.241 0.765 0.271 1.124 0.081L56.6 15.97l3.418 1.797a1.068 1.068 0 0 0 1.547-1.124l-0.652-3.806 2.766-2.695a1.07 1.07 0 0 0 0.27-1.094M59.023 11.702c-0.25 0.244-0.366 0.598-0.306 0.944l0.382 2.228-2.001-1.051a1.06 1.06 0 0 0-0.994 0l-2.001 1.051 0.382-2.228a1.07 1.07 0 0 0-0.307-0.944l-1.62-1.579 2.238-0.325c0.348-0.05 0.648-0.269 0.803-0.584l1-2.026 1.001 2.026c0.156 0.315 0.456 0.534 0.804 0.584l2.237 0.325zM52.267 41.044h-2.134v2.134h2.134zM52.267 45.311h-2.134v2.134h2.134zM54.4 43.178h-2.133v2.133H54.4zM50.134 43.178H48v2.133h2.134zM44.8 52.778h-2.133v2.133H44.8zM44.8 57.045h-2.133v2.133H44.8zM46.934 54.911H44.8v2.134h2.134zM42.667 54.911h-2.134v2.134h2.134zM32 48.511h-2.133v2.134H32zM32 52.778h-2.133v2.133H32zM34.133 50.645H32v2.133h2.133zM29.867 50.645h-2.134v2.133h2.134zM11.733 12.244H9.6v2.133h2.133zM11.733 16.51H9.6v2.134h2.133zM13.866 14.377h-2.133v2.134h2.133zM9.6 14.377H7.466v2.134H9.6z" />
            <path d="M49.43 28.319a3.55 3.55 0 0 0-2.377-1.41 3.55 3.55 0 0 0-2.68 0.705l-2.503 1.919h-1e-3l-3.795 2.835-2.716-1.082c4.842-2.172 8.227-7.016 8.227-12.64C43.585 11 37.34 4.78 29.663 4.78S15.74 11 15.74 18.646c0 2.771 0.828 5.348 2.24 7.517l-5.528-0.048h-0.01c-0.017 0-0.03 9e-3-0.047 0.01a1 1 0 0 0-0.31 0.061c-0.026 0.01-0.052 0.015-0.077 0.027-0.012 5e-3-0.025 6e-3-0.038 0.013l-6.466 3.193h-2e-3l-3.787 1.822a1 1 0 0 0-0.126 0.07 3.56 3.56 0 0 0-1.196 4.589c0.44 0.858 1.19 1.49 2.112 1.779a3.558 3.558 0 0 0 2.757-0.257l2.776-1.476 4.528-2.339 2.714-0.015-10.884 10.83q0 2e-3-3e-3 3e-3l-2.677 2.666a3.3 3.3 0 0 0-0.98 2.356c0 0.89 0.347 1.727 0.98 2.357 0.65 0.647 1.504 0.97 2.358 0.97 0.856 0 1.709-0.323 2.36-0.97l2.629-2.617 3.482-2.6 1.801 1.794-3.523 3.508-3e-3 3e-3-2.678 2.666a3.3 3.3 0 0 0-0.98 2.355c0 0.89 0.348 1.727 0.98 2.358 0.65 0.646 1.505 0.97 2.36 0.97 0.854 0 1.71-0.324 2.36-0.97l2.679-2.667 4.285-4.266q0-3e-3 2e-3-4e-3l2.019-2-8e-3-7e-3c0.013-0.013 0.031-0.017 0.044-0.031L32.215 38.98l6.942 0.987q0.075 0.011 0.15 0.01c0.13 0 0.254-0.03 0.375-0.076q0.05-0.02 0.1-0.047c0.038-0.019 0.078-0.03 0.114-0.054l6.427-4.267c0.024-0.016 0.036-0.041 0.059-0.059 0.025-0.02 0.057-0.028 0.08-0.05l2.544-2.383a3.56 3.56 0 0 0 0.423-4.723M4.26 35.54c-0.346 0.186-0.74 0.223-1.116 0.104a1.43 1.43 0 0 1-0.425-2.52l2.628-1.264 0.632 1.849 0.266 0.776zM11.255 31.885l-3.097 1.6-0.51-1.494-0.367-1.073 4.053-2zM41.454 18.644c0 1.837-0.438 3.57-1.198 5.119l-8.363-3.798a3.72 3.72 0 0 0-1.576-2.776l2.928-9.72C38 8.98 41.454 13.416 41.454 18.643M17.876 18.643c0-6.47 5.289-11.734 11.789-11.734 0.506 0 1 0.043 1.49 0.105l-2.864 9.507c-0.038 0-0.075-0.011-0.114-0.011a3.743 3.743 0 0 0-3.745 3.733 3.743 3.743 0 0 0 3.745 3.733c1.389 0 2.589-0.766 3.236-1.889l7.725 3.51c-2.15 2.893-5.59 4.78-9.473 4.78-6.5 0-11.789-5.265-11.789-11.734M29.789 20.243c0 0.882-0.724 1.6-1.612 1.6a1.61 1.61 0 0 1-1.612-1.6c0-0.882 0.723-1.6 1.612-1.6s1.612 0.718 1.612 1.6M4.929 50.292a1.217 1.217 0 0 1-1.708 2e-3 1.187 1.187 0 0 1 0-1.689l1.924-1.917 1.702 1.695zM11.357 57.759a1.216 1.216 0 0 1-1.71 2e-3 1.19 1.19 0 0 1 0-1.689l1.926-1.918 0.805 0.801 0.899 0.894zM18.321 50.822l-4e-3 2e-3-3.53 3.52-0.805-0.801-0.898-0.894 3.527-3.51v-2e-3q0 0 3e-3-2e-3c0.08-0.08 0.13-0.176 0.18-0.27 0.013-0.028 0.04-0.052 0.052-0.08 0.033-0.083 0.038-0.171 0.05-0.258 7e-3-0.049 0.028-0.095 0.028-0.145 0-0.071-0.025-0.14-0.04-0.211-0.013-0.064-0.013-0.13-0.037-0.191-0.04-0.1-0.11-0.189-0.183-0.275-0.02-0.024-0.027-0.054-0.05-0.076h-1e-3l-2e-3-4e-3-3.214-3.2c-0.034-0.034-0.078-0.048-0.116-0.077a1 1 0 0 0-0.174-0.115 1 1 0 0 0-0.187-0.065 1 1 0 0 0-0.206-0.04 1 1 0 0 0-0.19 0.01 1 1 0 0 0-0.209 0.04 1 1 0 0 0-0.188 0.09c-0.04 0.022-0.085 0.03-0.122 0.057l-3.547 2.648-1.801-1.794 4.798-4.773 8.72 8.578zM31.958 36.788c-0.03-4e-3-0.06 8e-3-0.09 6e-3a1 1 0 0 0-0.23 0.014q-0.09 0.013-0.177 0.042a1 1 0 0 0-0.193 0.094q-0.089 0.053-0.166 0.123c-0.026 0.022-0.057 0.033-0.08 0.058l-9.397 10.292-8.656-8.513 5.666-5.637a1.068 1.068 0 0 0-0.759-1.822l-4.437 0.026 0.055-3.215 6.208 0.053a13.9 13.9 0 0 0 9.963 4.202c0.875 0 1.728-0.09 2.559-0.245 0.08 0.064 0.159 0.129 0.26 0.17l4.819 1.92 0.305 1.516 0.356 1.77zM40.041 37.145l-0.626-3.116 2.892-2.16 0.758 1.005 1.136 1.508zM47.548 31.483l-1.676 1.57-1.862-2.473 1.663-1.274c0.31-0.24 0.701-0.336 1.085-0.286 0.387 0.054 0.728 0.256 0.96 0.568 0.434 0.584 0.36 1.398-0.17 1.895" />
            <path d="M27.204 37.088l-4.286-4.267a1.066 1.066 0 0 0-1.505 0l-4.285 4.267a1.07 1.07 0 0 0 0 1.513l4.285 4.266a1.066 1.066 0 0 0 1.505 0l4.286-4.266a1.067 1.067 0 0 0 0-1.513M22.166 40.606l-2.773-2.762 2.773-2.761 2.775 2.761zM34.329 10.142l-0.516 2.071c0.142 0.035 3.476 0.904 3.476 4.298h2.133c0-4.034-3.331-5.931-5.093-6.37M39.422 18.644h-2.133v2.134h2.133z" />
        </symbol>
        <symbol id="strategy" viewBox="0 0 64 64" fill="none">
            <path fill="var(--color0, #2e2f42)" d="M61.546 44.195 44.66 27.185l1.874-9.23c0.484 0.188 0.998 0.287 1.517 0.29h0.013a4.318 4.318 0 1 0-4.017-2.87l-9.92 1.21L17.945 0.32A1.07 1.07 0 0 0 17.192 0c-0.28 1e-3-0.548 0.113-0.747 0.31L13.42 3.318a1.067 1.067 0 0 0 0 1.509l1.628 1.65a29.885 29.885 0 0 0 5.04 35.327q0.127 0.122 0.291 0.195a6 6 0 0 0-0.104 1.094v12.374h-12.8A5.34 5.34 0 0 0 2.14 60.8v2.133C2.14 63.523 2.618 64 3.207 64h49.067c0.589 0 1.067-0.478 1.067-1.067V60.8a5.34 5.34 0 0 0-5.334-5.333h-12.8v-5.484c2.005 0.42 4.048 0.635 6.097 0.64a29.7 29.7 0 0 0 14.08-3.567l1.637 1.646c0.198 0.202 0.469 0.318 0.753 0.32 0.28-2e-3 0.548-0.113 0.746-0.31l3.025-3.009a1.067 1.067 0 0 0 0-1.508M46.56 12.466a2.133 2.133 0 1 1 1.503 3.646h-6e-3a2.133 2.133 0 0 1-1.497-3.646zM44.049 19.476l-1.197 5.89-2.351-2.364zM42.837 17.672l-3.84 3.817-2.97-2.987zM48.008 57.6a3.2 3.2 0 0 1 3.2 3.2v1.067H4.275V60.8a3.2 3.2 0 0 1 3.2-3.2zM33.075 53.333v2.134H22.408v-2.134zM22.408 51.2v-8.107c0-2.587 2.393-4.693 5.333-4.693s5.334 2.106 5.334 4.693V51.2zM35.208 47.808v-4.715c0-3.764-3.35-6.826-7.466-6.826a7.6 7.6 0 0 0-6.563 3.572 27.74 27.74 0 0 1-4.557-31.774l37.204 37.417a27.64 27.64 0 0 1-18.618 2.326M57.786 46.441l-1.503-1.512L17.182 5.591l-1.51-1.512 1.51-1.504 15.87 15.96c7e-3 0 0.011 0.013 0.019 0.019L59.3 44.937z" />
            <path fill="var(--color1, #4d5ae5)" d="M27.751 40.533h-0.01a3.2 3.2 0 0 0-0.01 6.4h0.01a3.2 3.2 0 0 0 0.01-6.4M28.498 44.49a1.067 1.067 0 0 1-1.818-0.762 1.07 1.07 0 0 1 1.061-1.061 1.067 1.067 0 0 1 0.757 1.823z" />
        </symbol>
        <symbol id="punctuality" viewBox="0 0 64 64" fill="none">
            <path fill="var(--color0, #2e2f42)" d="M62.593 30.603C62.59 13.697 48.883-4e-3 31.977 0 15.074 3e-3 1.372 13.71 1.375 30.616a30.61 30.61 0 0 0 21.299 29.152q0.182 0.058 0.373 0.057c0.242 0 0.478-0.065 0.685-0.187 0.27-0.16 0.472-0.414 0.567-0.713l7.73-24.5a3.826 3.826 0 1 0-1.68-7.27L20.137 16.942a1.275 1.275 0 0 0-1.803 1.804l10.207 10.218a3.75 3.75 0 0 0 1.072 4.618l-7.365 23.346C7.692 51.566 0.239 35.42 5.601 20.864 10.963 6.31 27.11-1.145 41.665 4.217 56.22 9.58 63.673 25.726 58.312 40.281a28.09 28.09 0 0 1-14.925 15.947l-0.796-3.749a1.275 1.275 0 0 0-2.096-0.687l-7.674 6.851a1.275 1.275 0 0 0 0.462 2.169l9.797 3.127a1.275 1.275 0 0 0 1.638-1.48l-0.782-3.678a30.51 30.51 0 0 0 18.657-28.178M31.984 29.327a1.276 1.276 0 1 1 0 2.552 1.276 1.276 0 0 1 0-2.552M36.185 59.055l4.368-3.896 1.206 5.68z" />
            <path fill="var(--color1, #4d5ae5)" d="M30.709 6.37v2.55a1.275 1.275 0 1 0 2.55 0V6.37a1.276 1.276 0 0 0-2.55 0M7.752 29.327a1.275 1.275 0 0 0 0 2.55h2.55a1.275 1.275 0 1 0 0-2.55zM56.216 31.878a1.275 1.275 0 1 0 0-2.55h-2.55a1.276 1.276 0 0 0 0 2.55z" />
        </symbol>
        <symbol id="diligence" viewBox="0 0 64 64" fill="none">
            <g clip-path="url(#a)">
                <path fill="var(--color1, #4d5ae5)" d="M29.851 29.93h2.132v9.594h-2.132zM38.38 34.194h2.132v5.33H38.38zM21.322 37.392h2.132v2.132h-2.132zM14.926 36.326h2.132v3.198h-2.133z" />
                <path fill="var(--color0, #2e2f42)" d="M3.198 56.582h51.174a3.2 3.2 0 0 0 3.198-3.198v-4.265a3.2 3.2 0 0 0-3.199-3.198h-1.066V19.334l6.056-5.736a3.216 3.216 0 1 0-1.493-1.526l-4.563 4.325v-2.46a3.2 3.2 0 0 0-3.198-3.198H7.463a3.2 3.2 0 0 0-3.199 3.199V45.92H3.198A3.2 3.2 0 0 0 0 49.119v4.265a3.2 3.2 0 0 0 3.198 3.198M60.768 9.673a1.066 1.066 0 1 1 0 2.133 1.066 1.066 0 0 1 0-2.133M6.397 13.938c0-0.59 0.477-1.067 1.066-1.067h42.644c0.589 0 1.066 0.478 1.066 1.067v4.477l-2.132 2.026V16.07c0-0.589-0.477-1.066-1.066-1.066H9.595c-0.589 0-1.066 0.477-1.066 1.066v26.652c0 0.59 0.477 1.067 1.066 1.067h38.38c0.589 0 1.066-0.478 1.066-1.067V23.374l2.132-2.02V45.92H6.397zM15.992 27.797a3.198 3.198 0 1 0 2.214 5.497l3.706 1.86c0.43 0.215 0.953 0.114 1.273-0.246l7.877-8.863 7.744 5.803c0.416 0.311 0.996 0.278 1.372-0.079l6.73-6.375v16.262H10.662v-24.52H46.91v5.32L39.366 29.6l-7.81-5.855a1.067 1.067 0 0 0-1.435 0.145l-7.986 8.985-2.986-1.493q0.033-0.192 0.041-0.387a3.2 3.2 0 0 0-3.198-3.198M17.058 30.995a1.066 1.066 0 1 1-2.133 0 1.066 1.066 0 0 1 2.133 0M23.454 48.053h10.661v1.066c0 0.589-0.477 1.066-1.066 1.066H24.52a1.066 1.066 0 0 1-1.066-1.066zM2.132 49.12c0-0.589 0.478-1.066 1.066-1.066h18.124v1.066a3.2 3.2 0 0 0 3.198 3.199h8.53a3.2 3.2 0 0 0 3.198-3.199v-1.066h18.124c0.588 0 1.066 0.477 1.066 1.066v4.265c0 0.588-0.478 1.066-1.067 1.066H3.198a1.066 1.066 0 0 1-1.066-1.066z" />
            </g>
            <defs>
                <clipPath id="a">
                    <path fill="#fff" d="M0 0h64v64H0z" />
                </clipPath>
            </defs>
        </symbol>
    </defs>
</svg>
